<svg id="svg" version="1.1" xmlns="http://www.w3.org/2000/svg" xmlns:xlink="http://www.w3.org/1999/xlink" width="400" height="400" viewBox="0, 0, 400,400"><g id="svgg"><path id="path0" d="M123.200 129.596 L 123.200 131.200 131.600 131.200 L 140.000 131.200 140.000 198.957 C 140.000 260.374,139.941 266.737,139.367 266.957 C 139.019 267.091,135.239 267.200,130.967 267.200 L 123.200 267.200 123.200 268.600 L 123.200 270.000 141.400 270.000 L 159.600 270.000 159.600 268.600 L 159.600 267.200 151.833 267.200 C 147.561 267.200,143.781 267.091,143.433 266.957 C 142.730 266.687,142.430 135.600,143.132 135.600 C 143.620 135.600,144.234 136.960,145.571 141.000 C 146.593 144.085,149.404 152.124,150.117 154.000 C 150.242 154.330,150.815 156.040,151.390 157.800 C 151.965 159.560,152.600 161.360,152.801 161.800 C 153.002 162.240,153.909 164.850,154.817 167.600 C 155.726 170.350,156.619 172.960,156.802 173.400 C 157.348 174.710,159.064 179.575,160.187 183.000 C 160.764 184.760,161.395 186.560,161.589 187.000 C 161.784 187.440,162.337 188.970,162.818 190.400 C 165.287 197.739,167.539 204.072,167.756 204.289 C 167.890 204.424,168.000 204.866,168.000 205.272 C 168.000 205.678,168.164 206.323,168.365 206.705 C 168.565 207.087,169.029 208.300,169.396 209.400 C 169.762 210.500,170.220 211.760,170.414 212.200 C 170.744 212.950,173.232 220.159,175.177 226.000 C 175.653 227.430,176.213 228.913,176.421 229.295 C 176.630 229.677,176.800 230.322,176.800 230.728 C 176.800 231.134,176.910 231.577,177.044 231.711 C 177.283 231.950,179.121 237.017,180.994 242.600 C 181.894 245.281,184.627 253.146,185.095 254.400 C 185.654 255.899,188.929 265.252,189.681 267.500 C 190.441 269.770,190.621 270.000,191.635 270.000 C 193.053 270.000,193.034 270.034,195.230 263.600 C 196.244 260.630,197.179 257.930,197.309 257.600 C 197.439 257.270,198.090 255.380,198.755 253.400 C 199.419 251.420,200.880 247.190,202.001 244.000 C 203.121 240.810,204.650 236.400,205.397 234.200 C 206.489 230.986,208.450 225.404,210.104 220.800 C 210.223 220.470,211.071 217.950,211.989 215.200 C 212.907 212.450,213.814 209.840,214.004 209.400 C 214.195 208.960,214.820 207.160,215.393 205.400 C 215.967 203.640,216.599 201.840,216.799 201.400 C 216.999 200.960,217.701 198.980,218.359 197.000 C 219.017 195.020,220.746 189.980,222.201 185.800 C 223.656 181.620,225.186 177.210,225.600 176.000 C 226.014 174.790,227.542 170.380,228.994 166.200 C 230.446 162.020,232.178 156.980,232.842 155.000 C 233.506 153.020,234.211 151.040,234.408 150.600 C 234.606 150.160,235.506 147.550,236.409 144.800 C 237.311 142.050,238.201 139.440,238.385 139.000 C 238.569 138.560,238.946 137.570,239.224 136.800 C 239.501 136.030,239.880 135.228,240.065 135.019 C 240.251 134.809,240.357 164.419,240.301 200.819 L 240.200 267.000 231.900 267.108 L 223.600 267.216 223.600 268.608 L 223.600 270.000 250.600 270.000 L 277.600 270.000 277.600 268.600 L 277.600 267.200 269.833 267.200 C 265.561 267.200,261.781 267.091,261.433 266.957 C 260.859 266.737,260.800 260.374,260.800 198.957 L 260.800 131.200 269.200 131.200 L 277.600 131.200 277.600 129.600 L 277.600 128.000 258.500 128.006 C 247.995 128.009,239.214 128.144,238.987 128.306 C 238.759 128.468,238.007 130.310,237.314 132.400 C 236.621 134.490,234.682 140.160,233.005 145.000 C 231.328 149.840,229.417 155.420,228.759 157.400 C 228.101 159.380,227.402 161.360,227.206 161.800 C 227.009 162.240,226.306 164.220,225.643 166.200 C 223.925 171.331,220.795 180.491,220.519 181.200 C 220.095 182.285,215.595 195.311,214.162 199.600 C 213.391 201.910,212.600 204.160,212.405 204.600 C 212.209 205.040,211.580 206.840,211.007 208.600 C 210.433 210.360,209.805 212.160,209.611 212.600 C 209.416 213.040,208.512 215.650,207.600 218.400 C 206.688 221.150,205.787 223.760,205.597 224.200 C 205.407 224.640,204.497 227.250,203.575 230.000 C 201.206 237.068,200.930 237.474,200.113 235.100 C 198.045 229.092,196.701 225.273,196.419 224.600 C 196.235 224.160,195.779 222.900,195.405 221.800 C 194.439 218.957,192.794 214.342,192.410 213.400 C 192.231 212.960,191.782 211.700,191.411 210.600 C 191.041 209.500,190.586 208.240,190.400 207.800 C 190.214 207.360,189.759 206.100,189.389 205.000 C 189.018 203.900,188.569 202.640,188.390 202.200 C 188.006 201.258,186.361 196.643,185.395 193.800 C 185.021 192.700,184.569 191.440,184.390 191.000 C 183.837 189.641,181.078 181.904,178.329 174.000 C 176.807 169.626,175.225 165.219,174.810 164.200 C 174.631 163.760,174.182 162.500,173.811 161.400 C 173.441 160.300,172.986 159.040,172.800 158.600 C 172.614 158.160,172.159 156.900,171.789 155.800 C 171.418 154.700,170.969 153.440,170.790 153.000 C 170.611 152.560,170.000 150.895,169.432 149.300 C 168.864 147.705,167.950 145.140,167.400 143.600 C 166.850 142.060,165.950 139.540,165.400 138.000 C 164.850 136.460,163.939 133.895,163.375 132.300 C 162.812 130.705,162.207 129.130,162.032 128.800 C 161.756 128.282,159.093 128.186,142.456 128.096 L 123.200 127.992 123.200 129.596 " stroke="none" fill="#f9f9f9" fill-rule="evenodd"></path><path id="path1" d="M0.000 200.000 L 0.000 400.000 200.000 400.000 L 400.000 400.000 400.000 200.000 L 400.000 0.000 200.000 0.000 L 0.000 0.000 0.000 200.000 M162.009 127.605 C 162.425 127.828,162.884 128.640,163.028 129.409 C 163.173 130.179,163.450 130.907,163.645 131.028 C 163.840 131.149,164.000 131.576,164.000 131.978 C 164.000 132.380,164.269 133.224,164.598 133.854 C 164.926 134.484,165.196 135.304,165.198 135.676 C 165.199 136.048,165.380 136.464,165.600 136.600 C 165.820 136.736,166.000 137.251,166.000 137.744 C 166.000 138.237,166.144 138.811,166.319 139.020 C 166.495 139.229,166.960 140.390,167.353 141.600 C 168.068 143.799,168.627 145.259,169.196 146.413 C 169.362 146.750,169.634 147.644,169.800 148.400 C 169.966 149.156,170.238 150.050,170.404 150.387 C 170.898 151.388,171.473 152.875,172.189 155.000 C 172.559 156.100,173.009 157.360,173.189 157.800 C 173.368 158.240,173.818 159.500,174.189 160.600 C 174.559 161.700,175.009 162.960,175.189 163.400 C 175.368 163.840,175.818 165.100,176.189 166.200 C 176.559 167.300,177.014 168.560,177.200 169.000 C 177.386 169.440,177.841 170.700,178.211 171.800 C 178.582 172.900,179.032 174.160,179.211 174.600 C 179.391 175.040,179.841 176.300,180.211 177.400 C 180.582 178.500,181.032 179.760,181.211 180.200 C 181.391 180.640,181.838 181.900,182.204 183.000 C 182.571 184.100,183.035 185.313,183.235 185.695 C 183.436 186.077,183.600 186.664,183.600 187.000 C 183.600 187.336,183.758 187.923,183.951 188.305 C 184.804 189.991,185.600 192.075,185.600 192.619 C 185.600 192.945,185.759 193.523,185.953 193.905 C 186.478 194.937,187.035 196.363,187.789 198.600 C 188.159 199.700,188.609 200.960,188.789 201.400 C 188.968 201.840,189.418 203.100,189.789 204.200 C 190.159 205.300,190.609 206.560,190.789 207.000 C 190.968 207.440,191.418 208.700,191.789 209.800 C 192.159 210.900,192.614 212.160,192.800 212.600 C 192.986 213.040,193.441 214.300,193.811 215.400 C 194.182 216.500,194.632 217.760,194.811 218.200 C 194.991 218.640,195.441 219.900,195.811 221.000 C 196.182 222.100,196.632 223.360,196.811 223.800 C 196.991 224.240,197.438 225.500,197.804 226.600 C 198.171 227.700,198.603 228.870,198.765 229.200 C 198.927 229.530,199.406 230.923,199.830 232.297 C 200.700 235.116,201.382 235.485,201.783 233.351 C 201.932 232.554,202.201 231.609,202.381 231.251 C 202.904 230.205,203.443 228.754,204.179 226.400 C 204.558 225.190,205.021 223.840,205.209 223.400 C 205.397 222.960,206.020 221.160,206.593 219.400 C 207.167 217.640,207.797 215.840,207.993 215.400 C 208.189 214.960,209.089 212.350,209.991 209.600 C 210.894 206.850,211.792 204.240,211.988 203.800 C 212.183 203.360,212.639 202.010,213.000 200.800 C 213.361 199.590,213.810 198.240,213.997 197.800 C 214.185 197.360,214.638 196.100,215.004 195.000 C 215.371 193.900,215.835 192.687,216.035 192.305 C 216.236 191.923,216.400 191.336,216.400 191.000 C 216.400 190.664,216.564 190.077,216.765 189.695 C 216.965 189.313,217.429 188.100,217.796 187.000 C 218.162 185.900,218.620 184.640,218.812 184.200 C 219.005 183.760,219.336 182.770,219.548 182.000 C 220.136 179.864,222.376 173.489,222.813 172.705 C 223.026 172.323,223.200 171.736,223.200 171.400 C 223.200 171.064,223.364 170.477,223.565 170.095 C 223.765 169.713,224.229 168.500,224.596 167.400 C 224.962 166.300,225.420 165.040,225.612 164.600 C 225.805 164.160,226.136 163.170,226.348 162.400 C 226.791 160.792,229.069 154.192,229.592 153.000 C 229.785 152.560,230.239 151.210,230.600 150.000 C 230.961 148.790,231.410 147.440,231.597 147.000 C 231.785 146.560,232.238 145.300,232.604 144.200 C 232.971 143.100,233.435 141.887,233.635 141.505 C 233.836 141.123,234.000 140.536,234.000 140.200 C 234.000 139.864,234.164 139.277,234.365 138.895 C 234.565 138.513,235.029 137.300,235.396 136.200 C 235.762 135.100,236.203 133.840,236.375 133.400 C 236.547 132.960,237.016 131.554,237.418 130.275 C 238.432 127.041,237.348 127.199,258.474 127.206 C 279.249 127.213,278.506 127.122,278.326 129.640 L 278.200 131.400 269.900 131.508 L 261.600 131.616 261.600 199.000 L 261.600 266.384 269.900 266.492 L 278.200 266.600 278.321 268.487 C 278.483 271.006,280.630 270.837,250.000 270.710 L 223.400 270.600 223.279 268.500 L 223.158 266.400 231.579 266.400 L 240.000 266.400 239.973 201.700 C 239.954 156.038,239.822 137.294,239.525 138.000 C 238.712 139.932,238.462 140.619,237.779 142.800 C 237.401 144.010,236.949 145.360,236.776 145.800 C 236.604 146.240,236.162 147.500,235.796 148.600 C 235.429 149.700,234.965 150.913,234.765 151.295 C 234.564 151.677,234.400 152.316,234.400 152.715 C 234.400 153.114,234.257 153.611,234.082 153.820 C 233.907 154.029,233.424 155.280,233.009 156.600 C 232.594 157.920,232.123 159.180,231.963 159.400 C 231.803 159.620,231.545 160.477,231.390 161.304 C 231.236 162.132,230.950 162.907,230.755 163.028 C 230.560 163.149,230.400 163.687,230.400 164.224 C 230.400 164.761,230.220 165.200,230.000 165.200 C 229.780 165.200,229.600 165.509,229.600 165.887 C 229.600 166.521,228.781 169.102,227.976 171.000 C 227.790 171.440,227.099 173.420,226.440 175.400 C 224.208 182.108,221.566 189.796,221.216 190.600 C 221.025 191.040,220.546 192.390,220.153 193.600 C 219.760 194.810,219.295 195.971,219.119 196.180 C 218.944 196.389,218.800 196.963,218.800 197.456 C 218.800 197.949,218.640 198.451,218.445 198.572 C 218.250 198.693,217.968 199.445,217.818 200.245 C 217.668 201.044,217.385 201.991,217.190 202.349 C 216.995 202.707,216.369 204.440,215.799 206.200 C 215.230 207.960,214.611 209.760,214.424 210.200 C 214.237 210.640,213.782 211.900,213.411 213.000 C 213.041 214.100,212.596 215.360,212.424 215.800 C 212.251 216.240,211.799 217.590,211.421 218.800 C 211.042 220.010,210.581 221.360,210.397 221.800 C 210.213 222.240,209.762 223.500,209.396 224.600 C 209.029 225.700,208.565 226.913,208.365 227.295 C 208.164 227.677,208.000 228.213,208.000 228.486 C 208.000 228.930,206.474 233.325,205.598 235.400 C 205.413 235.840,204.948 237.280,204.565 238.600 C 204.182 239.920,203.756 241.180,203.618 241.400 C 203.480 241.620,203.028 242.880,202.613 244.200 C 202.198 245.520,201.710 246.771,201.529 246.980 C 201.348 247.189,201.200 247.686,201.200 248.085 C 201.200 248.484,201.032 249.123,200.826 249.505 C 200.620 249.887,199.885 251.910,199.193 254.000 C 198.501 256.090,197.780 258.160,197.592 258.600 C 197.404 259.040,196.780 260.840,196.207 262.600 C 195.633 264.360,195.006 266.160,194.813 266.600 C 194.620 267.040,194.358 267.882,194.231 268.472 C 193.909 269.958,192.952 270.800,191.586 270.800 C 190.254 270.800,189.900 270.284,188.750 266.663 C 188.320 265.308,187.809 263.840,187.615 263.400 C 187.421 262.960,186.959 261.700,186.589 260.600 C 186.218 259.500,185.770 258.240,185.592 257.800 C 185.414 257.360,184.958 256.010,184.579 254.800 C 184.201 253.590,183.749 252.240,183.576 251.800 C 183.404 251.360,182.959 250.100,182.589 249.000 C 182.218 247.900,181.763 246.640,181.576 246.200 C 181.389 245.760,180.767 243.960,180.193 242.200 C 179.620 240.440,178.990 238.640,178.795 238.200 C 178.323 237.139,175.578 229.219,175.329 228.200 C 175.221 227.760,174.982 227.040,174.798 226.600 C 174.613 226.160,174.162 224.900,173.796 223.800 C 173.429 222.700,172.965 221.487,172.765 221.105 C 172.564 220.723,172.400 220.084,172.400 219.685 C 172.400 219.286,172.246 218.789,172.058 218.580 C 171.870 218.371,171.413 217.210,171.042 216.000 C 170.672 214.790,170.209 213.440,170.014 213.000 C 169.818 212.560,168.908 209.950,167.991 207.200 C 167.074 204.450,166.175 201.840,165.993 201.400 C 165.811 200.960,165.359 199.700,164.989 198.600 C 164.618 197.500,164.166 196.240,163.983 195.800 C 163.799 195.360,163.180 193.560,162.607 191.800 C 162.033 190.040,161.406 188.240,161.213 187.800 C 161.020 187.360,160.559 186.100,160.189 185.000 C 159.818 183.900,159.367 182.640,159.186 182.200 C 159.005 181.760,158.561 180.410,158.200 179.200 C 157.839 177.990,157.390 176.640,157.203 176.200 C 157.015 175.760,156.559 174.500,156.189 173.400 C 155.818 172.300,155.363 171.040,155.176 170.600 C 154.989 170.160,154.367 168.360,153.793 166.600 C 153.220 164.840,152.590 163.040,152.395 162.600 C 151.923 161.539,149.178 153.619,148.929 152.600 C 148.821 152.160,148.582 151.440,148.398 151.000 C 148.213 150.560,147.759 149.300,147.389 148.200 C 147.018 147.100,146.559 145.840,146.368 145.400 C 146.177 144.960,145.483 142.980,144.827 141.000 L 143.634 137.400 143.617 201.892 L 143.600 266.384 151.891 266.492 L 160.181 266.600 160.562 267.684 C 160.821 268.419,160.794 269.094,160.480 269.784 L 160.017 270.800 141.709 270.794 C 121.594 270.787,122.294 270.876,122.474 268.360 L 122.600 266.600 130.900 266.492 L 139.200 266.384 139.200 198.992 L 139.200 131.600 130.800 131.600 L 122.400 131.600 122.400 129.633 C 122.400 128.434,122.595 127.588,122.900 127.465 C 123.903 127.060,161.241 127.194,162.009 127.605 " stroke="none" fill="#1c1c1c" fill-rule="evenodd"></path><path id="path2" d="M122.909 129.600 C 122.909 130.590,122.987 130.995,123.082 130.500 C 123.178 130.005,123.178 129.195,123.082 128.700 C 122.987 128.205,122.909 128.610,122.909 129.600 M277.709 129.600 C 277.709 130.590,277.787 130.995,277.882 130.500 C 277.978 130.005,277.978 129.195,277.882 128.700 C 277.787 128.205,277.709 128.610,277.709 129.600 M139.500 174.700 C 139.555 198.625,139.647 229.180,139.703 242.600 C 139.760 256.020,139.850 236.445,139.903 199.100 C 139.956 161.755,139.865 131.200,139.700 131.200 C 139.535 131.200,139.445 150.775,139.500 174.700 M142.800 201.157 C 142.800 260.568,142.859 266.737,143.433 266.957 C 143.781 267.091,147.550 267.200,151.809 267.200 L 159.552 267.200 159.709 268.700 L 159.866 270.200 159.933 268.508 L 160.000 266.816 151.700 266.708 L 143.400 266.600 143.299 201.700 C 143.231 158.503,143.332 136.800,143.599 136.800 C 143.819 136.800,144.000 137.100,144.000 137.467 C 144.000 137.833,144.120 138.013,144.267 137.866 C 144.586 137.548,143.610 135.600,143.132 135.600 C 142.950 135.600,142.800 165.101,142.800 201.157 M144.629 139.200 C 144.776 139.750,145.064 140.470,145.267 140.800 C 145.525 141.217,145.557 141.095,145.371 140.400 C 145.224 139.850,144.936 139.130,144.733 138.800 C 144.475 138.383,144.443 138.505,144.629 139.200 M153.429 164.400 C 153.576 164.950,153.864 165.670,154.067 166.000 C 154.325 166.417,154.357 166.295,154.171 165.600 C 154.024 165.050,153.736 164.330,153.533 164.000 C 153.275 163.583,153.243 163.705,153.429 164.400 M222.444 184.844 C 222.198 185.551,222.066 186.200,222.152 186.285 C 222.238 186.371,222.509 185.862,222.756 185.156 C 223.002 184.449,223.134 183.800,223.048 183.715 C 222.962 183.629,222.691 184.138,222.444 184.844 M210.444 209.244 C 210.198 209.951,210.066 210.600,210.152 210.685 C 210.238 210.771,210.509 210.262,210.756 209.556 C 211.002 208.849,211.134 208.200,211.048 208.115 C 210.962 208.029,210.691 208.538,210.444 209.244 M203.644 228.844 C 203.398 229.551,203.266 230.200,203.352 230.285 C 203.438 230.371,203.709 229.862,203.956 229.156 C 204.202 228.449,204.334 227.800,204.248 227.715 C 204.162 227.629,203.891 228.138,203.644 228.844 M179.829 240.000 C 179.976 240.550,180.264 241.270,180.467 241.600 C 180.725 242.017,180.757 241.895,180.571 241.200 C 180.424 240.650,180.136 239.930,179.933 239.600 C 179.675 239.183,179.643 239.305,179.829 240.000 M231.800 266.800 L 223.400 267.025 231.676 267.112 C 236.859 267.167,240.045 267.050,240.200 266.800 C 240.336 266.580,240.392 266.439,240.324 266.488 C 240.256 266.536,236.420 266.676,231.800 266.800 M122.958 267.366 C 122.838 267.678,122.817 268.443,122.910 269.066 C 123.054 270.025,123.089 269.970,123.140 268.708 L 123.200 267.217 131.300 267.100 L 139.400 266.982 131.287 266.891 C 124.600 266.816,123.137 266.899,122.958 267.366 M269.576 267.095 L 277.553 267.216 277.718 268.612 L 277.884 270.007 277.842 268.503 L 277.800 267.000 269.700 266.987 L 261.599 266.975 269.576 267.095 " stroke="none" fill="#949494" fill-rule="evenodd"></path><path id="path3" d="M130.000 127.889 C 147.967 128.168,162.307 128.173,162.138 127.900 C 162.036 127.735,153.188 127.641,142.476 127.690 C 131.764 127.740,126.150 127.829,130.000 127.889 M248.272 127.900 C 253.592 127.963,262.412 127.963,267.872 127.900 C 273.333 127.837,268.980 127.785,258.200 127.785 C 247.420 127.785,242.953 127.837,248.272 127.900 M122.501 129.800 C 122.505 130.680,122.587 130.993,122.683 130.495 C 122.779 129.998,122.775 129.278,122.675 128.895 C 122.575 128.513,122.496 128.920,122.501 129.800 M127.521 131.499 C 129.788 131.570,133.388 131.570,135.521 131.498 C 137.655 131.426,135.800 131.368,131.400 131.368 C 127.000 131.368,125.255 131.427,127.521 131.499 M261.067 131.467 C 260.696 131.837,260.729 266.309,261.100 266.538 C 261.265 266.640,261.354 236.325,261.298 199.170 L 261.195 131.617 269.298 131.500 L 277.400 131.382 269.367 131.291 C 264.948 131.241,261.213 131.320,261.067 131.467 M160.060 268.496 L 160.000 269.992 141.500 270.100 L 123.000 270.208 141.513 270.304 C 161.692 270.409,160.649 270.529,160.290 268.134 C 160.147 267.178,160.110 267.235,160.060 268.496 M223.352 268.600 L 223.400 270.200 250.500 270.204 L 277.600 270.208 250.624 270.101 L 223.648 269.994 223.476 268.497 L 223.305 267.000 223.352 268.600 M190.352 270.112 C 190.545 270.305,191.219 270.398,191.851 270.319 C 192.909 270.187,192.881 270.159,191.500 269.968 C 190.640 269.849,190.150 269.910,190.352 270.112 " stroke="none" fill="#848484" fill-rule="evenodd"></path><path id="path4" d="M122.900 127.465 C 122.625 127.576,122.400 127.854,122.400 128.082 C 122.400 128.355,122.584 128.345,122.936 128.053 C 123.309 127.743,129.302 127.575,142.636 127.500 L 161.800 127.392 142.600 127.328 C 132.040 127.292,123.175 127.354,122.900 127.465 M258.400 127.594 L 277.800 127.800 277.928 129.359 C 278.007 130.325,277.854 131.060,277.528 131.290 C 277.113 131.582,277.128 131.626,277.600 131.499 C 278.396 131.285,278.665 128.015,277.926 127.546 C 277.637 127.362,268.760 127.252,258.200 127.300 L 239.000 127.388 258.400 127.594 M162.467 128.820 C 162.701 129.492,162.967 129.967,163.057 129.876 C 163.256 129.678,162.501 127.600,162.231 127.600 C 162.127 127.600,162.233 128.149,162.467 128.820 M237.244 130.444 C 236.998 131.151,236.866 131.800,236.952 131.885 C 237.038 131.971,237.309 131.462,237.556 130.756 C 237.802 130.049,237.934 129.400,237.848 129.315 C 237.762 129.229,237.491 129.738,237.244 130.444 M139.299 198.892 L 139.200 266.384 130.933 266.492 C 124.623 266.574,122.642 266.721,122.563 267.110 C 122.506 267.391,122.551 267.435,122.663 267.210 C 122.792 266.950,125.859 266.800,131.046 266.800 C 137.221 266.800,139.272 266.677,139.415 266.300 C 139.520 266.025,139.559 235.560,139.502 198.600 L 139.398 131.400 139.299 198.892 M261.398 199.000 L 261.400 266.600 269.723 266.708 L 278.045 266.816 277.923 268.508 L 277.800 270.200 250.538 270.200 C 235.544 270.200,223.360 270.335,223.462 270.500 C 223.717 270.914,277.272 270.869,277.926 270.454 C 278.266 270.239,278.407 269.498,278.326 268.360 L 278.200 266.600 269.901 266.492 L 261.602 266.384 261.499 198.892 L 261.397 131.400 261.398 199.000 M164.467 134.420 C 164.701 135.092,164.967 135.567,165.057 135.476 C 165.256 135.278,164.501 133.200,164.231 133.200 C 164.127 133.200,164.233 133.749,164.467 134.420 M239.905 201.220 L 240.009 266.400 231.605 266.400 C 226.982 266.400,223.200 266.535,223.199 266.700 C 223.199 266.865,227.024 266.910,231.699 266.800 L 240.200 266.600 240.301 201.621 C 240.357 165.883,240.267 136.507,240.101 136.341 C 239.936 136.175,239.847 165.371,239.905 201.220 M143.385 137.700 C 143.280 137.975,143.241 167.090,143.297 202.400 L 143.400 266.600 151.863 266.800 C 156.517 266.910,160.241 266.865,160.139 266.700 C 160.037 266.535,156.272 266.400,151.774 266.400 L 143.595 266.400 143.698 201.800 C 143.754 166.270,143.749 137.200,143.687 137.200 C 143.626 137.200,143.489 137.425,143.385 137.700 M145.029 141.600 C 145.176 142.150,145.464 142.870,145.667 143.200 C 145.925 143.617,145.957 143.495,145.771 142.800 C 145.624 142.250,145.336 141.530,145.133 141.200 C 144.875 140.783,144.843 140.905,145.029 141.600 M153.829 166.800 C 153.976 167.350,154.264 168.070,154.467 168.400 C 154.725 168.817,154.757 168.695,154.571 168.000 C 154.424 167.450,154.136 166.730,153.933 166.400 C 153.675 165.983,153.643 166.105,153.829 166.800 M224.444 167.644 C 224.198 168.351,224.066 169.000,224.152 169.085 C 224.238 169.171,224.509 168.662,224.756 167.956 C 225.002 167.249,225.134 166.600,225.048 166.515 C 224.962 166.429,224.691 166.938,224.444 167.644 M177.829 171.600 C 177.976 172.150,178.264 172.870,178.467 173.200 C 178.725 173.617,178.757 173.495,178.571 172.800 C 178.424 172.250,178.136 171.530,177.933 171.200 C 177.675 170.783,177.643 170.905,177.829 171.600 M226.044 175.644 C 225.798 176.351,225.666 177.000,225.752 177.085 C 225.838 177.171,226.109 176.662,226.356 175.956 C 226.602 175.249,226.734 174.600,226.648 174.515 C 226.562 174.429,226.291 174.938,226.044 175.644 M179.829 177.200 C 179.976 177.750,180.264 178.470,180.467 178.800 C 180.725 179.217,180.757 179.095,180.571 178.400 C 180.424 177.850,180.136 177.130,179.933 176.800 C 179.675 176.383,179.643 176.505,179.829 177.200 M181.829 182.800 C 181.976 183.350,182.264 184.070,182.467 184.400 C 182.725 184.817,182.757 184.695,182.571 184.000 C 182.424 183.450,182.136 182.730,181.933 182.400 C 181.675 181.983,181.643 182.105,181.829 182.800 M222.044 187.244 C 221.798 187.951,221.666 188.600,221.752 188.685 C 221.838 188.771,222.109 188.262,222.356 187.556 C 222.602 186.849,222.734 186.200,222.648 186.115 C 222.562 186.029,222.291 186.538,222.044 187.244 M210.844 206.844 C 210.598 207.551,210.466 208.200,210.552 208.285 C 210.638 208.371,210.909 207.862,211.156 207.156 C 211.402 206.449,211.534 205.800,211.448 205.715 C 211.362 205.629,211.091 206.138,210.844 206.844 M215.244 206.844 C 214.998 207.551,214.866 208.200,214.952 208.285 C 215.038 208.371,215.309 207.862,215.556 207.156 C 215.802 206.449,215.934 205.800,215.848 205.715 C 215.762 205.629,215.491 206.138,215.244 206.844 M171.418 217.300 C 171.568 217.795,171.855 218.376,172.056 218.591 C 172.257 218.806,172.219 218.401,171.972 217.691 C 171.465 216.238,170.997 215.908,171.418 217.300 M206.844 218.444 C 206.598 219.151,206.466 219.800,206.552 219.885 C 206.638 219.971,206.909 219.462,207.156 218.756 C 207.402 218.049,207.534 217.400,207.448 217.315 C 207.362 217.229,207.091 217.738,206.844 218.444 M195.429 220.800 C 195.576 221.350,195.864 222.070,196.067 222.400 C 196.325 222.817,196.357 222.695,196.171 222.000 C 196.024 221.450,195.736 220.730,195.533 220.400 C 195.275 219.983,195.243 220.105,195.429 220.800 M199.429 232.000 C 199.576 232.550,199.864 233.270,200.067 233.600 C 200.325 234.017,200.357 233.895,200.171 233.200 C 200.024 232.650,199.736 231.930,199.533 231.600 C 199.275 231.183,199.243 231.305,199.429 232.000 M180.229 242.400 C 180.376 242.950,180.664 243.670,180.867 244.000 C 181.125 244.417,181.157 244.295,180.971 243.600 C 180.824 243.050,180.536 242.330,180.333 242.000 C 180.075 241.583,180.043 241.705,180.229 242.400 M189.029 267.600 C 189.176 268.150,189.464 268.870,189.667 269.200 C 189.925 269.617,189.957 269.495,189.771 268.800 C 189.624 268.250,189.336 267.530,189.133 267.200 C 188.875 266.783,188.843 266.905,189.029 267.600 M122.400 269.908 C 122.400 270.132,122.685 270.424,123.033 270.557 C 123.954 270.911,159.919 270.855,160.138 270.500 C 160.240 270.335,152.039 270.249,141.913 270.308 C 128.555 270.386,123.350 270.290,122.951 269.959 C 122.611 269.677,122.400 269.658,122.400 269.908 M190.264 270.500 C 190.501 270.888,192.459 270.877,193.078 270.484 C 193.341 270.317,192.774 270.185,191.818 270.190 C 190.862 270.196,190.162 270.335,190.264 270.500 " stroke="none" fill="#545454" fill-rule="evenodd"></path></g></svg>